<?xml version="1.0" standalone="no"?>
<svg xmlns="http://www.w3.org/2000/svg" xmlns:xlink="http://www.w3.org/1999/xlink" width="288pt" height="188pt" viewBox="0.00 0.00 288.05 188.00">
<g id="graph0" class="graph" transform="translate(4,184) scale(1)" data-name="G">

<polygon fill="white" stroke="none" points="-4,4 -4,-184 284.05,-184 284.05,4 -4,4"/>
<!-- A -->
<g id="node1" class="node" pointer-events="visible" data-name="A">

<ellipse fill="lightblue" stroke="black" cx="140.02" cy="-162" rx="100.16" ry="18"/>
<text text-anchor="middle" x="140.02" y="-157.8" font-family="Times,serif" font-size="14.00">Consulta con Etiquetas</text>
</g>
<!-- D -->
<g id="node2" class="node" pointer-events="visible" data-name="D">

<polygon fill="lightblue" stroke="black" points="189.74,-108 90.3,-108 90.3,-104 86.3,-104 86.3,-100 90.3,-100 90.3,-80 86.3,-80 86.3,-76 90.3,-76 90.3,-72 189.74,-72 189.74,-108"/>
<polyline fill="none" stroke="black" points="90.3,-104 94.3,-104 94.3,-100 90.3,-100"/>
<polyline fill="none" stroke="black" points="90.3,-80 94.3,-80 94.3,-76 90.3,-76"/>
<text text-anchor="middle" x="140.02" y="-85.8" font-family="Times,serif" font-size="14.00">Post-Processor</text>
</g>
<!-- A&#45;&gt;D -->
<g id="edge1" class="edge" data-name="A-&gt;D">

<path fill="none" stroke="black" d="M140.02,-143.7C140.02,-136.41 140.02,-127.73 140.02,-119.54"/>
<polygon fill="black" stroke="black" points="143.52,-119.62 140.02,-109.62 136.52,-119.62 143.52,-119.62"/>
</g>
<!-- E -->
<g id="node3" class="node" pointer-events="visible" data-name="E">

<ellipse fill="lightblue" stroke="black" cx="140.02" cy="-18" rx="140.05" ry="18"/>
<text text-anchor="middle" x="140.02" y="-13.8" font-family="Times,serif" font-size="14.00">Consulta en Lenguaje Intermedio</text>
</g>
<!-- D&#45;&gt;E -->
<g id="edge2" class="edge" data-name="D-&gt;E">

<path fill="none" stroke="black" d="M140.02,-71.7C140.02,-64.41 140.02,-55.73 140.02,-47.54"/>
<polygon fill="black" stroke="black" points="143.52,-47.62 140.02,-37.62 136.52,-47.62 143.52,-47.62"/>
</g>
</g>
</svg>