<?xml version="1.0" standalone="no"?>
<svg xmlns="http://www.w3.org/2000/svg" xmlns:xlink="http://www.w3.org/1999/xlink" width="191pt" height="188pt" viewBox="0.00 0.00 191.01 188">
<g id="graph0" class="graph" transform="translate(4,184) scale(1)" data-name="G">

<polygon fill="white" stroke="none" points="-4,4 -4,-184 187.01,-184 187.01,4 -4,4"/>
<!-- A -->
<g id="node1" class="node" pointer-events="visible" data-name="A">

<ellipse fill="lightblue" stroke="black" cx="91.5" cy="-162" rx="33.05" ry="18"/>
<text text-anchor="middle" x="91.5" y="-157.8" font-family="Times,serif" font-size="14.00">query</text>
</g>
<!-- D -->
<g id="node2" class="node" pointer-events="visible" data-name="D">

<polygon fill="lightblue" stroke="black" points="138.26,-108 44.74,-108 44.74,-104 40.74,-104 40.74,-100 44.74,-100 44.74,-80 40.74,-80 40.74,-76 44.74,-76 44.74,-72 138.26,-72 138.26,-108"/>
<polyline fill="none" stroke="black" points="44.74,-104 48.74,-104 48.74,-100 44.74,-100"/>
<polyline fill="none" stroke="black" points="44.74,-80 48.74,-80 48.74,-76 44.74,-76"/>
<text text-anchor="middle" x="91.5" y="-85.8" font-family="Times,serif" font-size="14.00">Pre-Processor</text>
</g>
<!-- A&#45;&gt;D -->
<g id="edge1" class="edge" data-name="A-&gt;D">

<path fill="none" stroke="black" d="M91.5,-143.7C91.5,-136.41 91.5,-127.73 91.5,-119.54"/>
<polygon fill="black" stroke="black" points="95,-119.62 91.5,-109.62 88,-119.62 95,-119.62"/>
</g>
<!-- E -->
<g id="node3" class="node" pointer-events="visible" data-name="E">

<ellipse fill="lightblue" stroke="black" cx="91.5" cy="-18" rx="91.51" ry="18"/>

<text text-anchor="middle" x="91.5" y="-13.8" font-family="Times,serif" font-size="14.00">query with LABELS</text></g>
<!-- D&#45;&gt;E -->
<g id="edge2" class="edge" data-name="D-&gt;E">

<path fill="none" stroke="black" d="M91.5,-71.7C91.5,-64.41 91.5,-55.73 91.5,-47.54"/>
<polygon fill="black" stroke="black" points="95,-47.62 91.5,-37.62 88,-47.62 95,-47.62"/>
</g>
</g>
</svg>